<svg xmlns="http://www.w3.org/2000/svg" width="1000" height="208" viewBox="0 0 1000 208">
  <g id="announcement-usage-1" transform="translate(-360 -1727)">
    <rect id="Rectangle" width="1000" height="208" rx="3" transform="translate(360 1727)" fill="#f0f0f0"/>
    <g id="Announcement_banner" data-name="Announcement banner" transform="translate(64 1569)">
      <rect id="Rectangle-2" data-name="Rectangle" width="872" height="80" transform="translate(360 222)" fill="#fff"/>
      <g id="Call_to_action" data-name="Call to action" transform="translate(-57 -1)">
        <path id="Arrow" d="M7,0,5.5,1.5,10,6H0V8H10L5.5,12.5,7,14l7-7Z" transform="translate(1176 257)" fill="#06c"/>
        <text id="Call_to_action-2" data-name="Call to action" transform="translate(1057 270)" fill="#06c" font-size="18" font-family="RedHatDisplay-Bold, Red Hat Display" font-weight="700"><tspan x="0" y="0">Call to action</tspan></text>
      </g>
      <text id="Get_your_free_pass_to_our_immersive_virtual_event" data-name="Get your free pass to our immersive virtual event" transform="translate(622 268)" fill="#151515" font-size="16" font-family="RedHatText-Regular, Red Hat Text"><tspan x="0" y="0">Get your free pass to our immersive virtual event</tspan></text>
      <g id="Logo" transform="translate(-19)">
        <rect id="Rectangle-3" data-name="Rectangle" width="130" height="40" rx="3" transform="translate(479 242)" fill="#f5f5f5"/>
        <text id="Logo-2" data-name="Logo" transform="translate(528 267)" fill="#6a6e73" font-size="14" font-family="RedHatText-Regular, Red Hat Text" letter-spacing="0.01em"><tspan x="0" y="0">Logo</tspan></text>
      </g>
    </g>
    <g id="Grid" transform="translate(6)" opacity="0.03">
      <rect id="Rectangle-4" data-name="Rectangle" width="48" height="208" transform="translate(1204 1727)" fill="red" opacity="0.75"/>
      <rect id="Rectangle-5" data-name="Rectangle" width="48" height="208" transform="translate(1136 1727)" fill="red" opacity="0.75"/>
      <rect id="Rectangle-6" data-name="Rectangle" width="48" height="208" transform="translate(1068 1727)" fill="red" opacity="0.75"/>
      <rect id="Rectangle-7" data-name="Rectangle" width="48" height="208" transform="translate(1000 1727)" fill="red" opacity="0.75"/>
      <rect id="Rectangle-8" data-name="Rectangle" width="48" height="208" transform="translate(932 1727)" fill="red" opacity="0.75"/>
      <rect id="Rectangle-9" data-name="Rectangle" width="48" height="208" transform="translate(864 1727)" fill="red" opacity="0.75"/>
      <rect id="Rectangle-10" data-name="Rectangle" width="48" height="208" transform="translate(796 1727)" fill="red" opacity="0.75"/>
      <rect id="Rectangle-11" data-name="Rectangle" width="48" height="208" transform="translate(728 1727)" fill="red" opacity="0.75"/>
      <rect id="Rectangle-12" data-name="Rectangle" width="48" height="208" transform="translate(660 1727)" fill="red" opacity="0.75"/>
      <rect id="Rectangle-13" data-name="Rectangle" width="48" height="208" transform="translate(592 1727)" fill="red" opacity="0.75"/>
      <rect id="Rectangle-14" data-name="Rectangle" width="48" height="208" transform="translate(524 1727)" fill="red" opacity="0.75"/>
      <rect id="Rectangle-15" data-name="Rectangle" width="48" height="208" transform="translate(456 1727)" fill="red" opacity="0.75"/>
    </g>
    <g id="Rectangle-16" data-name="Rectangle" transform="translate(462 1811)" fill="none" stroke="#f0f" stroke-width="1" opacity="0.25">
      <rect width="796" height="40" stroke="none"/>
      <rect x="0.5" y="0.5" width="795" height="39" fill="none"/>
    </g>
  </g>
</svg>
