<svg xmlns="http://www.w3.org/2000/svg" xmlns:xlink="http://www.w3.org/1999/xlink" width="555" height="82" viewBox="0 0 555 82">
  <defs>
    <filter id="Rectangle" x="245" y="0" width="64" height="46" filterUnits="userSpaceOnUse">
      <feOffset dy="3" input="SourceAlpha"/>
      <feGaussianBlur stdDeviation="2" result="blur"/>
      <feFlood flood-opacity="0.102"/>
      <feComposite operator="in" in2="blur"/>
      <feComposite in="SourceGraphic"/>
    </filter>
    <filter id="Cursor" x="272.5" y="55.5" width="21" height="26" filterUnits="userSpaceOnUse">
      <feOffset dy="2" input="SourceAlpha"/>
      <feGaussianBlur stdDeviation="1.5" result="blur-2"/>
      <feFlood flood-opacity="0.251"/>
      <feComposite operator="in" in2="blur-2"/>
      <feComposite in="SourceGraphic"/>
    </filter>
  </defs>
  <g id="audio-behavior-1" transform="translate(-583 -3240)">
    <g id="Audio_player" data-name="Audio player" transform="translate(223 3052)">
      <rect id="Rectangle-2" data-name="Rectangle" width="555" height="48" rx="3" transform="translate(360 222)" fill="#f0f0f0"/>
      <g id="Button">
        <rect id="Rectangle-3" data-name="Rectangle" width="32" height="32" transform="translate(875 230)" fill="none"/>
        <path id="Icon" d="M20.368,9.7h-2.16c-.144-.429-.288-.714-.432-1.143l1.44-1.429a.432.432,0,0,0,0-.571l-2.3-2.286a.441.441,0,0,0-.576,0L14.9,5.7a9.971,9.971,0,0,0-1.152-.429V3.129a.38.38,0,0,0-.432-.429H10.144a.44.44,0,0,0-.432.429V5.271a4.325,4.325,0,0,0-1.152.571L7.12,4.414a.441.441,0,0,0-.576,0L4.24,6.557a.432.432,0,0,0,0,.571L5.68,8.557c-.144.429-.288.714-.432,1.143H3.232a.38.38,0,0,0-.432.429v3.143a.38.38,0,0,0,.432.429h2.16c.144.429.288.714.432,1.143l-1.44,1.429a.432.432,0,0,0,0,.571l2.3,2.286a.441.441,0,0,0,.576,0L8.7,17.7a9.971,9.971,0,0,0,1.152.429v2.143a.38.38,0,0,0,.432.429h3.168a.38.38,0,0,0,.432-.429V18.129c.432-.143.72-.286,1.152-.429l1.44,1.429a.441.441,0,0,0,.576,0l2.3-2.286a.432.432,0,0,0,0-.571l-1.44-1.429a9.793,9.793,0,0,0,.432-1.143h2.016a.38.38,0,0,0,.432-.429V10.129C20.8,9.668,20.512,9.7,20.368,9.7Zm-5.76,2a2.877,2.877,0,0,1-2.88,2.857A2.756,2.756,0,0,1,8.992,11.7a2.756,2.756,0,0,1,2.736-2.857A2.877,2.877,0,0,1,14.608,11.7Z" transform="translate(879.2 234.3)" fill="#6a6e73"/>
      </g>
      <g id="Bar">
        <rect id="Rectangle-4" data-name="Rectangle" width="64" height="6" rx="3" transform="translate(803 243)" fill="#d2d2d2"/>
        <path id="Rectangle-5" data-name="Rectangle" d="M3,0H32a0,0,0,0,1,0,0V6a0,0,0,0,1,0,0H3A3,3,0,0,1,0,3V3A3,3,0,0,1,3,0Z" transform="translate(803 243)" fill="#e00"/>
      </g>
      <g id="Ellipse" transform="translate(827 238)" fill="#fff" stroke="#b8bbbe" stroke-width="1">
        <circle cx="8" cy="8" r="8" stroke="none"/>
        <circle cx="8" cy="8" r="7.5" fill="none"/>
      </g>
      <g id="Button-2" data-name="Button">
        <rect id="Rectangle-6" data-name="Rectangle" width="32" height="32" transform="translate(763 230)" fill="none"/>
        <path id="Icon-2" data-name="Icon" d="M13.08,2.036a1.263,1.263,0,0,0-1.035,0L6.427,6.323H2.287A.954.954,0,0,0,1.4,7.21V14.6a.954.954,0,0,0,.887.887h4.14l5.618,4.287c.3,0,.444.148.591.148a.543.543,0,0,0,.444-.148.813.813,0,0,0,.444-.739V2.775A1.257,1.257,0,0,0,13.08,2.036Zm3.548,5.322a.769.769,0,0,0-1.183,0,.769.769,0,0,0,0,1.183,3.358,3.358,0,0,1,.887,2.366,3.358,3.358,0,0,1-.887,2.366.9.9,0,0,0,0,1.183c.148.148.3.148.591.148a.768.768,0,0,0,.591-.3,5.3,5.3,0,0,0,1.331-3.548A6.123,6.123,0,0,0,16.628,7.358Zm2.661-1.331a.782.782,0,0,0-1.183-.148.782.782,0,0,0-.148,1.183,6.59,6.59,0,0,1,1.183,3.844A6.487,6.487,0,0,1,17.811,14.9a.9.9,0,0,0,.148,1.183.543.543,0,0,0,.444.148c.3,0,.444-.148.739-.3a8.4,8.4,0,0,0,1.626-4.879A7.268,7.268,0,0,0,19.289,6.028Z" transform="translate(767.6 235.075)" fill="#6a6e73"/>
      </g>
      <text id="_15:00" data-name="15:00" transform="translate(721 251)" fill="#6a6e73" font-size="14" font-family="RedHatText-Regular, Red Hat Text" letter-spacing="0.01em"><tspan x="0" y="0">15:00</tspan></text>
      <g id="Bar-2" data-name="Bar">
        <rect id="Rectangle-7" data-name="Rectangle" width="305" height="6" rx="3" transform="translate(408 243)" fill="#d2d2d2"/>
        <path id="Rectangle-8" data-name="Rectangle" d="M3,0H152a0,0,0,0,1,0,0V6a0,0,0,0,1,0,0H3A3,3,0,0,1,0,3V3A3,3,0,0,1,3,0Z" transform="translate(408 243)" fill="#e00"/>
      </g>
      <g id="Ellipse-2" data-name="Ellipse" transform="translate(553 238)" fill="#fff" stroke="#b8bbbe" stroke-width="1">
        <circle cx="8" cy="8" r="8" stroke="none"/>
        <circle cx="8" cy="8" r="7.5" fill="none"/>
      </g>
      <g id="Button-3" data-name="Button">
        <rect id="Rectangle-9" data-name="Rectangle" width="32" height="32" transform="translate(368 230)" fill="none"/>
        <path id="Icon-3" data-name="Icon" d="M15.686,2.4H11.829a.823.823,0,0,0-.857.857V17.543a.922.922,0,0,0,.857.857h3.857a.922.922,0,0,0,.857-.857V3.257A.922.922,0,0,0,15.686,2.4Zm-7.571,0H4.257a.922.922,0,0,0-.857.857V17.543a.922.922,0,0,0,.857.857h4a.922.922,0,0,0,.857-.857V3.257A1.07,1.07,0,0,0,8.114,2.4Z" transform="translate(373.6 235.6)" fill="#6a6e73"/>
      </g>
    </g>
    <g id="Tooltip" transform="translate(127 -221)">
      <path id="Polygon" d="M6,0l6,6H0Z" transform="translate(739 3504) rotate(180)" fill="#151515"/>
      <g transform="matrix(1, 0, 0, 1, 456, 3461)" filter="url(#Rectangle)">
        <rect id="Rectangle-10" data-name="Rectangle" width="52" height="34" rx="3" transform="translate(251 3)" fill="#151515"/>
      </g>
      <text id="_22:30" data-name="22:30" transform="translate(733 3486)" fill="#fff" font-size="14" font-family="RedHatText-Regular, Red Hat Text" letter-spacing="0.01em"><tspan x="-18.158" y="0">22:30</tspan></text>
    </g>
    <g id="Cursor-2" data-name="Cursor" transform="translate(860 3298)">
      <g transform="matrix(1, 0, 0, 1, -277, -58)" filter="url(#Cursor)">
        <g id="Cursor-3" data-name="Cursor" transform="translate(277 58)">
          <path d="M 0.5 15.79290008544922 L 0.5 1.207100033760071 L 10.79290008544922 11.5 L 5 11.5 L 4.792890071868896 11.5 L 4.646450042724609 11.64645004272461 L 0.5 15.79290008544922 Z" stroke="none"/>
          <path d="M 1 14.58578014373779 L 4.292890071868896 11.29288959503174 L 4.585790157318115 11 L 5 11 L 9.585780143737793 11 L 1 2.414220094680786 L 1 14.58578014373779 M -8.881784197001252e-16 17 L -8.881784197001252e-16 0 L 12 12 L 5 12 L -8.881784197001252e-16 17 Z" stroke="none" fill="#fff"/>
        </g>
      </g>
    </g>
  </g>
</svg>
