<?xml version="1.0" encoding="utf-8"?>
<!-- Generator: Adobe Illustrator 24.3.0, SVG Export Plug-In . SVG Version: 6.00 Build 0)  -->
<svg version="1.1" id="Layer_1" xmlns="http://www.w3.org/2000/svg" xmlns:xlink="http://www.w3.org/1999/xlink" x="0px" y="0px"
	 viewBox="0 0 60 48" style="enable-background:new 0 0 284 48;" xml:space="preserve">
<style type="text/css">
	.st0{fill:#FFFFFF;}
	.st1{fill:#EE0000;}
</style>
<g id="Logo" transform="translate(-20 -16)">
    <g id="Icon" transform="translate(19.5 21.5)">
		<path id="Path" d="M40.8,14.8c0.1,0.3,0.1,0.6,0.1,0.9c0,3.7-4.5,4.4-7.7,4.4C21,20.1,12,12.5,12,10.2c0-0.2,0-0.3,0.1-0.5l-1,2.3
			c-0.2,0.6-0.4,1.2-0.4,1.8c0,4.5,10.2,11.4,21.9,11.4c5.2,0,9.1-1.9,9.1-5.4c-0.1-0.9-0.2-1.7-0.4-2.5L40.8,14.8z"/>
		<path id="Path-2" class="st1" d="M33.2,20c3.1,0,7.7-0.6,7.7-4.4c0-0.3,0-0.6-0.1-0.9l-1.9-8.1C38.5,4.8,38.1,4,35,2.4
			c-2.4-1.2-7.7-3.3-9.3-3.3c-1.5,0-1.9,1.9-3.6,1.9s-2.9-1.4-4.5-1.4c-1.5,0-2.5,1-3.2,3.1c0,0-2.1,5.9-2.4,6.8
			c0,0.2-0.1,0.3-0.1,0.5C11.9,12.5,21,20,33.2,20 M41.3,17.2c0.2,0.8,0.4,1.7,0.4,2.5c0,3.5-3.9,5.4-9.1,5.4
			c-11.7,0-21.9-6.8-21.9-11.4c0-0.6,0.1-1.3,0.4-1.8c-4.2,0.2-9.6,1-9.6,5.8c0,7.9,18.6,17.6,33.4,17.6c11.3,0,14.2-5.1,14.2-9.2
			C49,23,46.3,19.3,41.3,17.2"/>
	</g>
</g>
</svg>
